<svg id="why" xmlns="http://www.w3.org/2000/svg" width="141.684" height="141.684" viewBox="0 0 141.684 141.684">
  <defs>
    <style>
      .cls-1 {
        fill: #fff;
      }
    </style>
  </defs>
  <path id="Path_22" data-name="Path 22" class="cls-1" d="M345.7,221.049a4.151,4.151,0,1,1-4.151-4.151A4.151,4.151,0,0,1,345.7,221.049Zm0,0" transform="translate(-244.031 -156.877)"/>
  <path id="Path_23" data-name="Path 23" class="cls-1" d="M312.5,72.3a15.254,15.254,0,0,0-15.261,15.261v.005a4.151,4.151,0,1,0,8.3-.005,6.964,6.964,0,1,1,6.965,6.969,4.151,4.151,0,0,0-4.151,4.151v4.446a4.151,4.151,0,0,0,8.3,0v-.868A15.267,15.267,0,0,0,312.5,72.3Zm0,0" transform="translate(-214.982 -52.293)"/>
  <path id="Path_24" data-name="Path 24" class="cls-1" d="M39.831,280.243a21.935,21.935,0,1,0-26.9,0A26.352,26.352,0,0,0,0,302.95v8.892a4.151,4.151,0,0,0,4.151,4.151H48.612a4.151,4.151,0,0,0,4.151-4.151V302.95A26.353,26.353,0,0,0,39.831,280.243ZM12.748,262.935a13.634,13.634,0,1,1,13.634,13.634A13.649,13.649,0,0,1,12.748,262.935Zm31.713,44.756H8.3V302.95a18.079,18.079,0,0,1,36.158,0v4.741Zm0,0" transform="translate(0 -174.309)"/>
  <path id="Path_25" data-name="Path 25" class="cls-1" d="M263.643,0H210.29A17.479,17.479,0,0,0,192.8,17.489V97.518a4.154,4.154,0,0,0,6.641,3.321l16.677-12.508h47.524a17.479,17.479,0,0,0,17.489-17.489V17.489A17.479,17.479,0,0,0,263.643,0Zm9.187,70.842a9.18,9.18,0,0,1-9.187,9.187H214.736a4.155,4.155,0,0,0-2.491.83L201.1,89.216V17.489A9.18,9.18,0,0,1,210.29,8.3h53.353a9.18,9.18,0,0,1,9.187,9.187Zm0,0" transform="translate(-139.448)"/>
</svg>
