<svg xmlns="http://www.w3.org/2000/svg" width="29.492" height="28.044" viewBox="0 0 29.492 28.044">
  <defs>
    <style>
      .cls-1 {
        fill: #febc2f;
      }
    </style>
  </defs>
  <g id="eye" transform="translate(0 -3.253)">
    <path id="Path_7" data-name="Path 7" class="cls-1" d="M29.366,17.9c-2.584-4.791-8.207-9.14-14.619-9.14-6.457,0-12.064,4.4-14.619,9.14a1.048,1.048,0,0,0,0,1c2.584,4.791,8.207,9.14,14.619,9.14,7.26,0,12.612-5.418,14.619-9.14A1.048,1.048,0,0,0,29.366,17.9ZM14.747,25.853c-5.229,0-9.618-3.3-12.267-7.449,2.619-4.1,6.995-7.449,12.267-7.449,5.25,0,9.633,3.327,12.267,7.449-2.661,4.165-7.068,7.449-12.267,7.449ZM.364,6.089a1.194,1.194,0,0,1,1.627-.081L4.556,8.2a1.058,1.058,0,0,1,.085,1.547,1.194,1.194,0,0,1-1.627.081L.449,7.636A1.058,1.058,0,0,1,.364,6.089Zm13.231-.612V1.1a1.154,1.154,0,0,1,2.3,0V5.477a1.154,1.154,0,0,1-2.3,0Zm-7.3-2.44a1.075,1.075,0,0,1,.584-1.446A1.176,1.176,0,0,1,8.4,2.146l1.762,3.763a1.075,1.075,0,0,1-.584,1.446A1.176,1.176,0,0,1,8.053,6.8ZM24.852,9.752A1.058,1.058,0,0,1,24.937,8.2l2.566-2.2a1.194,1.194,0,0,1,1.627.081,1.058,1.058,0,0,1-.085,1.547l-2.566,2.2a1.194,1.194,0,0,1-1.627-.081ZM19.336,5.909,21.1,2.146a1.176,1.176,0,0,1,1.521-.555A1.075,1.075,0,0,1,23.2,3.037L21.441,6.8a1.176,1.176,0,0,1-1.521.555,1.075,1.075,0,0,1-.584-1.446Zm-4.589,7.113A5.532,5.532,0,0,0,9.087,18.4a5.532,5.532,0,0,0,5.659,5.381A5.532,5.532,0,0,0,20.406,18.4a5.532,5.532,0,0,0-5.659-5.381Zm0,8.572a3.195,3.195,0,1,1,0-6.381,3.195,3.195,0,1,1,0,6.381Z" transform="translate(0 3.253)"/>
  </g>
</svg>
