<svg id="about" xmlns="http://www.w3.org/2000/svg" width="141.684" height="117.482" viewBox="0 0 141.684 117.482">
  <defs>
    <style>
      .cls-1 {
        fill: #fff;
      }
    </style>
  </defs>
  <g id="Group_2" data-name="Group 2" transform="translate(0 51.458)">
    <g id="Group_1" data-name="Group 1">
      <path id="Path_17" data-name="Path 17" class="cls-1" d="M120.93,240.326H107.061a20.7,20.7,0,0,0-5.454.732A20.772,20.772,0,0,0,83.1,229.68H58.585a20.772,20.772,0,0,0-18.507,11.378,20.7,20.7,0,0,0-5.454-.732H20.755A20.778,20.778,0,0,0,0,261.081v22.171A12.467,12.467,0,0,0,12.453,295.7H129.232a12.467,12.467,0,0,0,12.453-12.453V261.081A20.778,20.778,0,0,0,120.93,240.326Zm-83.1,10.109V287.4H12.453A4.156,4.156,0,0,1,8.3,283.252V261.081a12.467,12.467,0,0,1,12.453-12.453H34.624a12.413,12.413,0,0,1,3.257.435C37.85,249.517,37.83,249.974,37.83,250.435ZM95.553,287.4H46.132V250.435a12.467,12.467,0,0,1,12.453-12.453H83.1a12.467,12.467,0,0,1,12.453,12.453Zm37.83-4.151a4.156,4.156,0,0,1-4.151,4.151H103.854V250.435c0-.461-.02-.918-.05-1.372a12.425,12.425,0,0,1,3.257-.435H120.93a12.467,12.467,0,0,1,12.453,12.453Z" transform="translate(0 -229.68)"/>
    </g>
  </g>
  <g id="Group_4" data-name="Group 4" transform="translate(9.247 22.906)">
    <g id="Group_3" data-name="Group 3">
      <path id="Path_18" data-name="Path 18" class="cls-1" d="M51.857,126.5A18.443,18.443,0,1,0,70.3,144.947,18.464,18.464,0,0,0,51.857,126.5Zm0,28.584A10.141,10.141,0,1,1,62,144.947,10.152,10.152,0,0,1,51.856,155.088Z" transform="translate(-33.414 -126.504)"/>
    </g>
  </g>
  <g id="Group_6" data-name="Group 6" transform="translate(46.203 0)">
    <g id="Group_5" data-name="Group 5">
      <path id="Path_19" data-name="Path 19" class="cls-1" d="M191.6,43.729A24.639,24.639,0,1,0,216.24,68.368,24.667,24.667,0,0,0,191.6,43.729Zm0,40.977a16.337,16.337,0,1,1,16.337-16.337A16.356,16.356,0,0,1,191.6,84.706Z" transform="translate(-166.962 -43.729)"/>
    </g>
  </g>
  <g id="Group_8" data-name="Group 8" transform="translate(95.552 22.906)">
    <g id="Group_7" data-name="Group 7">
      <path id="Path_20" data-name="Path 20" class="cls-1" d="M363.737,126.5a18.443,18.443,0,1,0,18.443,18.443A18.464,18.464,0,0,0,363.737,126.5Zm0,28.584a10.141,10.141,0,1,1,10.141-10.141A10.152,10.152,0,0,1,363.737,155.088Z" transform="translate(-345.294 -126.504)"/>
    </g>
  </g>
</svg>
