<svg id="contact" xmlns="http://www.w3.org/2000/svg" width="141.684" height="99.622" viewBox="0 0 141.684 99.622">
  <defs>
    <style>
      .cls-1 {
        fill: #fff;
      }
    </style>
  </defs>
  <g id="Group_9" data-name="Group 9" transform="translate(0 0)">
    <path id="Path_21" data-name="Path 21" class="cls-1" d="M129.232,76H12.453A12.471,12.471,0,0,0,0,88.453v74.716a12.471,12.471,0,0,0,12.453,12.453H129.232a12.467,12.467,0,0,0,12.453-12.453V88.453A12.465,12.465,0,0,0,129.232,76Zm-1.744,8.3L79.648,131.89a12.453,12.453,0,0,1-17.619-.008L14.2,84.3ZM8.3,161.479V90.148l35.874,35.685Zm5.9,5.841,35.86-35.632,6.1,6.072a20.755,20.755,0,0,0,29.344.008l6.112-6.08,35.86,35.632Zm119.181-5.841L97.508,125.833l35.874-35.685Z" transform="translate(0 -76)"/>
  </g>
</svg>
